<?xml version="1.0" encoding="utf-8"?>
<!-- Generator: Adobe Illustrator 15.0.2, SVG Export Plug-In . SVG Version: 6.00 Build 0)  -->
<!DOCTYPE svg PUBLIC "-//W3C//DTD SVG 1.1//EN" "http://www.w3.org/Graphics/SVG/1.1/DTD/svg11.dtd">
<svg version="1.1" id="Layer_1" xmlns="http://www.w3.org/2000/svg" xmlns:xlink="http://www.w3.org/1999/xlink" x="0px" y="0px"
	 width="84.24px" height="84.24px" viewBox="0 0 84.24 84.24" enable-background="new 0 0 84.24 84.24" xml:space="preserve">
<path fill-rule="evenodd" clip-rule="evenodd" d="M38.729-0.167c1.872,0,3.744,0,5.617,0c18.83,2.439,37.203,16.223,38.609,36.504
	c0.877,12.638-2.6,24.29-9.126,32.292c-5.837,7.157-14.927,9.087-23.868,14.04c2.644-4.939-9.601-4.121-9.828,0
	c0.625,0.311,1.255,0.617,1.404,1.404c-0.234,0-0.468,0-0.702,0C18.267,81.369,5.189,69.176,0.821,48.271
	c0.854-3.242,2.079-4.16,2.106-7.02c0.031-3.121-2.291-5.265-2.106-8.424C1.446,22.169,16.376,7.492,25.391,3.343
	C29.564,1.423,34.747,0.918,38.729-0.167z M43.643,3.343c1.283,2.021,6.479,2.99,9.127,1.404
	C52.371,1.405,44.734-0.163,43.643,3.343z M48.557,12.47c-0.912,5.436,7.064,7.253,9.127,3.51
	C57.647,11.528,51.605,9.794,48.557,12.47z M28.901,18.788c3.264,2.956,11.639,1.59,10.53-4.212
	C36.076,11.528,28.099,13.293,28.901,18.788z M64.703,14.576c0.678,4.47,3.129,7.167,8.424,7.02
	C73.205,16.699,69.069,12.739,64.703,14.576z M50.663,30.722c-0.067,2.937,2.573,5.639,7.021,5.616
	C66.793,29.235,50.888,20.9,50.663,30.722z M8.543,50.377c-6.293-0.113-3.426,10.633,2.106,9.127
	C12.601,56.291,10.333,52.098,8.543,50.377z M34.517,62.312c1.029,4.983,11.278,5.302,11.232-2.106
	C43.049,54.033,33.317,56.5,34.517,62.312z M63.299,65.822c5.133,0.217,6.82-3.009,6.318-8.425
	C64.676,54.654,59.746,62.269,63.299,65.822z M49.26,65.119c0.986,0.184,0.8,1.54,1.403,2.106c5.494,0.58,8.44-1.388,7.722-7.021
	C55.26,56.373,48.682,59.234,49.26,65.119z M37.325,81.266c-0.118-4.562-5.128-4.232-9.828-4.211
	C25.342,81.246,33.449,83.193,37.325,81.266z"/>
</svg>
