/* XPM */
const char * oyunicon_xpm[] = {
"32 32 101 2",
"  	c #FFFFFF",
". 	c #EBEBEB",
"+ 	c #9D9D9D",
"@ 	c #7A7A7A",
"# 	c #565656",
"$ 	c #3E3E3E",
"% 	c #4C4C4C",
"& 	c #787878",
"* 	c #CECECE",
"= 	c #A9A9A9",
"- 	c #000000",
"; 	c #010101",
"> 	c #767676",
", 	c #8E8E8E",
"' 	c #A6A6A6",
") 	c #818181",
"! 	c #2B2B2B",
"~ 	c #434343",
"{ 	c #1B1B1B",
"] 	c #D8D8D8",
"^ 	c #444444",
"/ 	c #E1E1E1",
"( 	c #FBFBFB",
"_ 	c #1D1D1D",
": 	c #5D5D5D",
"< 	c #E4E4E4",
"[ 	c #323232",
"} 	c #0B0B0B",
"| 	c #090909",
"1 	c #FDFDFD",
"2 	c #303030",
"3 	c #DCDCDC",
"4 	c #B6B6B6",
"5 	c #404040",
"6 	c #949494",
"7 	c #BFBFBF",
"8 	c #727272",
"9 	c #3D3D3D",
"0 	c #505050",
"a 	c #B2B2B2",
"b 	c #020202",
"c 	c #030303",
"d 	c #2E2E2E",
"e 	c #F8F8F8",
"f 	c #232323",
"g 	c #4B4B4B",
"h 	c #0C0C0C",
"i 	c #FEFEFE",
"j 	c #858585",
"k 	c #A0A0A0",
"l 	c #525252",
"m 	c #D7D7D7",
"n 	c #E3E3E3",
"o 	c #F0F0F0",
"p 	c #717171",
"q 	c #9F9F9F",
"r 	c #585858",
"s 	c #919191",
"t 	c #666666",
"u 	c #C1C1C1",
"v 	c #060606",
"w 	c #E5E5E5",
"x 	c #B1B1B1",
"y 	c #FCFCFC",
"z 	c #969696",
"A 	c #0D0D0D",
"B 	c #999999",
"C 	c #EEEEEE",
"D 	c #131313",
"E 	c #5A5A5A",
"F 	c #424242",
"G 	c #6C6C6C",
"H 	c #D0D0D0",
"I 	c #747474",
"J 	c #E8E8E8",
"K 	c #D5D5D5",
"L 	c #454545",
"M 	c #ADADAD",
"N 	c #7F7F7F",
"O 	c #545454",
"P 	c #BBBBBB",
"Q 	c #F4F4F4",
"R 	c #0A0A0A",
"S 	c #696969",
"T 	c #515151",
"U 	c #A5A5A5",
"V 	c #ABABAB",
"W 	c #DDDDDD",
"X 	c #BABABA",
"Y 	c #DBDBDB",
"Z 	c #292929",
"` 	c #929292",
" .	c #828282",
"..	c #040404",
"+.	c #757575",
"@.	c #ACACAC",
"#.	c #8F8F8F",
"$.	c #D9D9D9",
"%.	c #898989",
"&.	c #050505",
"*.	c #636363",
"                . + @ # $ % & *                                 ",
"                = - - - - - - ; >                               ",
"                , - - - - - - - - '                             ",
"                ) ! ~ $ { ; - - - $                             ",
"                          ] ^ - - ; /                           ",
"                            ( _ - - ,                           ",
"                              , - - :                           ",
"                              < - - [                           ",
"                                } - | 1                         ",
"                                2 - - 3                         ",
"                                # - - 4                         ",
"                                5 - - 6                         ",
"                              7 - - - 8                         ",
"                              9 - - - 0                         ",
"                            a - b c - d                         ",
"                          e f - g [ - h i                       ",
"                          j - - k l - - m                       ",
"                        n } - } o p - - q                       ",
"                        r - - 8   s - - t                       ",
"                      u - - v w   x - - d                       ",
"                    y d - - t     ] - - b .                     ",
"                    z - - c 3     i A - - B                     ",
"                  C D - - E         5 - - F                     ",
"                  G - - - H         I - - c J                   ",
"                K c - - L           M - - - N                   ",
"                O - - - P           Q R - - h J                 ",
"              H ; - - 2               O - - - S                 ",
"              T - - - U               V - - - b P               ",
"            W b - - D (               1 d - - - D /             ",
"            8 - - - l                   X - - - - f Y           ",
"            Z - - - `                      .- - - ..+.          ",
"            @.#.I r $.                      %.&.*.W             "};
