/* XPM */
static char *oyunicon_xpm[] = {
/* columns rows colors chars-per-pixel */
"32 32 137 2 ",
"   c black",
".  c #000101",
"X  c #010101",
"o  c #000202",
"O  c #010202",
"+  c #000303",
"@  c #010303",
"#  c #020303",
"$  c #010404",
"%  c #020404",
"&  c #030404",
"*  c #020505",
"=  c #030505",
"-  c #030606",
";  c #040505",
":  c #040606",
">  c #050606",
",  c #040707",
"<  c #050707",
"1  c #050808",
"2  c #060808",
"3  c #070909",
"4  c #090A0A",
"5  c #080B0B",
"6  c #090B0B",
"7  c #090C0C",
"8  c #0A0C0C",
"9  c #0A0D0D",
"0  c #0B0D0D",
"q  c #0B0E0E",
"w  c #0E1010",
"e  c #0F1111",
"r  c #111313",
"t  c #121313",
"y  c #111414",
"u  c #131515",
"i  c #141616",
"p  c #151717",
"a  c #161919",
"s  c #171A1A",
"d  c #191B1B",
"f  c #191C1C",
"g  c #1A1D1D",
"h  c #1D2020",
"j  c #1E2020",
"k  c #1E2121",
"l  c #1F2222",
"z  c #232525",
"x  c #282A2A",
"c  c #292B2B",
"v  c #2B2D2D",
"b  c #2D2F2F",
"n  c #333535",
"m  c #333636",
"M  c #353737",
"N  c #383A3A",
"B  c #3A3C3C",
"V  c #3B3D3D",
"C  c #3C3E3E",
"Z  c #3D4040",
"A  c #3F4141",
"S  c #3F4242",
"D  c #444646",
"F  c #464848",
"G  c #474A4A",
"H  c #484A4A",
"J  c #4E5151",
"K  c #525353",
"L  c #525454",
"P  c #545656",
"I  c #575959",
"U  c #585A5A",
"Y  c #5B5C5C",
"T  c #5B5D5D",
"R  c #5C5D5D",
"E  c #5D5F5F",
"W  c #616262",
"Q  c #616363",
"!  c #636565",
"~  c #696B6B",
"^  c #707272",
"/  c #727474",
"(  c #737575",
")  c #747575",
"_  c #757777",
"`  c #7B7C7C",
"'  c #7D7E7E",
"]  c #7D7F7F",
"[  c #818282",
"{  c #858686",
"}  c #888989",
"|  c #888A8A",
" . c #8E9090",
".. c #909191",
"X. c #9C9D9D",
"o. c #9E9F9F",
"O. c #9FA0A0",
"+. c #A0A1A1",
"@. c #A2A3A3",
"#. c #A4A5A5",
"$. c #A4A6A6",
"%. c #A6A7A7",
"&. c #A7A8A8",
"*. c #AAACAC",
"=. c #ACADAD",
"-. c #B0B1B1",
";. c #B3B4B4",
":. c #B5B6B6",
">. c #B6B6B6",
",. c #B6B7B7",
"<. c #B9BABA",
"1. c #BDBEBE",
"2. c #BEBFBF",
"3. c #BFC0C0",
"4. c #C0C0C0",
"5. c #C1C2C2",
"6. c gray76",
"7. c #C8C9C9",
"8. c #CACACA",
"9. c #CACBCB",
"0. c #D5D5D5",
"q. c #D7D8D8",
"w. c #D9DADA",
"e. c #DADADA",
"r. c #E0E1E1",
"t. c #E1E1E1",
"y. c gray90",
"u. c #E9E9E9",
"i. c #EFF0F0",
"p. c #F0F1F1",
"a. c #F6F6F6",
"s. c #F8F8F8",
"d. c #FBFBFB",
"f. c #FDFDFD",
"g. c #FEFEFE",
"h. c gray100",
"j. c None",
/* pixels */
"j.j.j.j.j.j.j.j.j.j.j.j., , , , b ! V j.j.j.j.j.j.j.j.j.j.j.j.j.",
"j.j.j.j.j.j.j.j.j., , , , , , , } h.h.U , , j.j.j.j.j.j.j.j.j.j.",
"j.j.j.j.j.j.j., , , , , , , , , , z V d , , , , j.j.j.j.j.j.j.j.",
"j.j.j.j.j.j., , , , , , , , , , , , , , , , , , , j.j.j.j.j.j.j.",
"j.j.j.j.j., , , , , , , 4 , , , , , ) +.U , , , , , j.j.j.j.j.j.",
"j.j.j.j., , , , , , , { e.0.U , , w a.h.h.J , , ^ ) w j.j.j.j.j.",
"j.j.j., , , , , , , U h.h.h.{ , , , J 6.7.n , , 2.h.=., j.j.j.j.",
"j.j., , , , , , , , b &.2.{ 4 , , , , , , , , , b 0.h.n , j.j.j.",
"j.j., , , , , , , , , , , , , , , , , , , , , , , 4 D d , j.j.j.",
"j., , , , , , , , , , , , , , , , , , , 4 , , , , , , , , , j.j.",
"j., , , , , , , , , , , , , , , , , 4 =.q.] , , , , , , , , j.j.",
", , , , , , , , , , , , , , , , , , n h.h.h.U , , , , , , , , j.",
", , , , , , , , , , , , , , , , , , d i.h.h.) , , , , , , , , j.",
"z , , , , , , , , , , , , , , , , , , D 2.-.t , , , , , , , , j.",
"} , , , , , , , , , , , , , , , , , , , , , , , , , , , , , , j.",
"8., , , , , , , , , , , , , , , , , , , , , , , , , , , , , , j.",
"-., , , , , , , , , , , , , , , , , , , , , , , , , , , , , , j.",
"P , , , , , , , , , , , , , , , , , , , , , , , , , , , , , , j.",
"4 , , , , , , , , , , , , , , , , , , , , , , , , , , , , , , j.",
", d %.V , , , , , , , , , , , , , , , , , , , , , , , , , , , j.",
"j.~ h.6., , , , , , , , , , , , , , , , , , , , , , , , , , j.j.",
"j.V h.h.t , , , , , , , , d U P , , , , , , , , M F , , , , j.j.",
"j., ^ X., , , , , , , , z y.h.h.X., , ` %.D , U h.i.t , , , j.j.",
"j.j., , , , , , , , , , P h.h.h.e., ` h.h.1., 0.h.0.2 , , j.j.j.",
"j.j., , , , , , , , , , t ,.a.y.I , -.h.h.} , 3.i.I , , , j.j.j.",
"j.j.j., , , , , , , , , , , b t , , D +.] w , t t , , , j.j.j.j.",
"j.j.j.j., , , , , , , , , , , , , , , , , , , , , , , j.j.j.j.j.",
"j.j.j.j.j., , , , , , , , , , , , , , , , , , , , , j.j.j.j.j.j.",
"j.j.j.j.j.j., , , , , , , , , , , , , , , , , , , j.j.j.j.j.j.j.",
"j.j.j.j.j.j.j., , a +.+.` d , , , , , , , , , j.j.j.j.j.j.j.j.j.",
"j.j.j.j.j.j.j.j.j.4 -.h.h.+., ! -.1.U , j.j.j.j.j.j.j.j.j.j.j.j.",
"j.j.j.j.j.j.j.j.j.j.j.j.D d t y.h.h.X.j.j.j.j.j.j.j.j.j.j.j.j.j."
};
